<svg width="280" height="24" viewBox="0 0 280 24" fill="none" xmlns="http://www.w3.org/2000/svg">
<path fill-rule="evenodd" clip-rule="evenodd" d="M47.6226 12.0055C47.6245 14.3689 46.9124 16.6797 45.5763 18.6457C44.2402 20.6118 42.3401 22.1446 40.1165 23.0504C37.8929 23.9561 35.4456 24.1941 33.0842 23.7341C30.7227 23.2742 28.5533 22.1371 26.8503 20.4666C25.1473 18.7961 23.9873 16.6672 23.5169 14.3493C23.3822 13.6857 23.3058 13.0151 23.287 12.3447C23.1991 15.2538 21.9835 18.0257 19.8811 20.0897C17.697 22.2339 14.7348 23.4384 11.646 23.4384H0V0.572239H11.646C14.7348 0.572239 17.697 1.77678 19.8811 3.9209C21.9858 5.98715 23.2017 8.76285 23.2873 11.6755C23.3291 10.2295 23.6384 8.79537 24.2078 7.44503C25.1287 5.26134 26.6885 3.39482 28.6901 2.08158C30.6917 0.768345 33.0451 0.0673828 35.4525 0.0673828C38.6769 0.0724144 41.768 1.33153 44.0489 3.56899C46.3299 5.80644 47.6149 8.83996 47.6226 12.0055ZM78.1449 0.571657L74.8355 12.5287L71.5358 0.571657H65.4604L62.1122 12.5669L58.8028 0.571657H49.4277L57.6964 23.4378H65.4604L68.5078 14.1675L71.5358 23.4378H79.2998L87.52 0.571657H78.1449ZM112.074 0.571657V23.4378H103.242V15.2536H97.7395V23.4378H88.9079V0.571657H97.7395V8.75587H103.252V0.571657H112.074ZM115.383 0.571657V23.4378H124.205V0.571657H115.383ZM143.518 16.8924V23.4378H127.514V0.571657H136.346V16.9305L143.518 16.8924ZM154.543 9.2608V7.079L161.715 7.11709V0.571657H145.721V23.4378H161.715V16.8924H154.543V14.7106H160.065V9.2608H154.543Z" fill="url(#paint0_linear_61686:3216)"/>
<path d="M186.601 0.767914L189.117 1.14143L187.832 2.62637L187.785 2.68033L187.755 2.74519C187.651 2.97242 187.656 3.22964 187.732 3.43639C187.803 3.6283 187.995 3.90027 188.346 3.92767L189.175 4.08242L184.984 9.38916L184.984 9.38913L184.98 9.39391L184.479 10.0434C184.472 10.0466 184.466 10.0497 184.459 10.0526C184.439 10.0614 184.424 10.0672 184.413 10.071L183.195 9.51983L183.195 9.51979L183.189 9.51728C183.015 9.44132 182.822 9.42071 182.637 9.45788C182.461 9.49316 182.298 9.57911 182.17 9.70618L181.345 10.4245L180.959 10.2004L180.876 10.1522L180.781 10.1381C180.5 10.0966 180.212 10.1527 179.967 10.2982L179.929 10.3208L179.896 10.3497L178.275 11.7503L178.275 11.7502L178.266 11.7579C178.231 11.7897 178.185 11.8107 178.135 11.8163C178.086 11.8218 178.037 11.8119 177.994 11.7889L177.033 11.2319L175.038 10.0153L175.038 10.0151L174.288 9.55811C174.256 9.53365 174.232 9.50182 174.219 9.46703C174.205 9.42924 174.203 9.38858 174.213 9.35003L174.216 9.33913L174.219 9.3281L174.485 8.09269L174.811 8.2568C174.957 8.34728 175.125 8.39515 175.297 8.39515C175.48 8.39515 175.659 8.34096 175.811 8.23893L176.637 7.70128L176.664 7.71351L178.285 8.46617L178.385 8.51268H178.495C178.505 8.51268 178.516 8.51278 178.527 8.51288C178.685 8.51433 178.977 8.51702 179.224 8.27423L179.246 8.25211L179.266 8.22735L183.548 2.80658C183.556 2.80629 183.565 2.80609 183.575 2.80595L184.486 3.04596C184.598 3.10345 184.736 3.12835 184.885 3.08945C185.063 3.04285 185.169 2.92498 185.218 2.86159C185.314 2.73608 185.381 2.55984 185.381 2.39139V2.36814L185.379 2.34499C185.377 2.32939 185.38 2.31336 185.386 2.2981L186.601 0.767914ZM181.435 10.4742C181.435 10.4743 181.434 10.4741 181.432 10.4735C181.434 10.4739 181.435 10.4742 181.435 10.4742Z" fill="white" stroke="black"/>
<path d="M176.126 12.7841L176.1 12.7162L178.597 14.3144L178.407 14.3417C178.308 14.3391 178.209 14.3534 178.115 14.3843C178.001 14.4216 177.896 14.4823 177.807 14.5627L176.703 15.4843L175.804 14.813L176.148 13.3685L176.161 13.3115V13.2528V12.967V12.8723L176.126 12.7841Z" fill="white" stroke="black"/>
<path d="M174.027 16.5517L174.787 16.1863L175.676 16.9238L175.595 18.0865L172.59 21.0908V20.3878L172.406 20.4578L174.027 16.5517Z" fill="white" stroke="black"/>
<path d="M210.532 17.4022L216.097 17.3934V22.9381H196.231C196.47 22.6781 196.756 22.3653 197.08 22.0106C198.061 20.9346 199.383 19.4725 200.748 17.9289C202.113 16.386 203.523 14.7587 204.677 13.3531C205.817 11.9648 206.745 10.7486 207.112 10.0456C207.699 8.9248 207.723 7.93454 207.353 7.19203C206.989 6.46271 206.274 6.04573 205.562 6.04573C204.95 6.04573 204.24 6.22022 203.695 6.84293C203.232 7.37177 202.943 8.16281 202.875 9.28051L195.669 8.80333C195.774 6.56024 196.632 4.55801 198.173 3.08681C199.82 1.51429 202.289 0.509766 205.562 0.509766C208.737 0.509766 211.237 1.33186 212.933 2.687C214.619 4.03443 215.544 5.93367 215.544 8.18444C215.544 9.54178 214.945 11.0446 213.957 12.5185C212.973 13.9855 211.632 15.3805 210.219 16.5119L209.104 17.4044L210.532 17.4022Z" fill="white" stroke="black"/>
<path d="M240.36 12.0054C240.36 18.3971 236.076 23.5007 229.825 23.5007C223.574 23.5007 219.3 18.3977 219.3 12.0054C219.3 5.61369 223.574 0.519714 229.825 0.519714C236.078 0.519714 240.36 5.55878 240.36 12.0054Z" fill="white" stroke="black"/>
<path d="M258.504 17.4022L264.069 17.3934V22.9381H244.203C244.442 22.6781 244.728 22.3653 245.052 22.0106C246.033 20.9346 247.355 19.4725 248.72 17.9289C250.085 16.386 251.495 14.7587 252.649 13.3531C253.789 11.9648 254.718 10.7486 255.084 10.0456C255.671 8.92481 255.695 7.93455 255.325 7.19204C254.961 6.46272 254.246 6.04573 253.534 6.04573C252.922 6.04573 252.212 6.22022 251.667 6.84292C251.205 7.37176 250.915 8.16281 250.847 9.28051L243.641 8.80333C243.746 6.56024 244.604 4.55801 246.145 3.08681C247.792 1.51429 250.261 0.509766 253.534 0.509766C256.709 0.509766 259.209 1.33186 260.905 2.687C262.591 4.03442 263.516 5.93367 263.516 8.18444C263.516 9.54178 262.917 11.0446 261.929 12.5185C260.945 13.9855 259.604 15.3805 258.191 16.5119L257.076 17.4044L258.504 17.4022Z" fill="white" stroke="black"/>
<path d="M279.5 0.589255V22.9378H271.678V8.19369V7.62858L271.117 7.69741L267.796 8.10496V2.52028L279.5 0.589255Z" fill="white" stroke="black"/>
<defs>
<linearGradient id="paint0_linear_61686:3216" x1="-3.30879e-06" y1="0.634187" x2="50.8161" y2="88.2688" gradientUnits="userSpaceOnUse">
<stop stop-color="#FF008E"/>
<stop offset="1" stop-color="#FFCD1E"/>
</linearGradient>
</defs>
</svg>
